<?xml version="1.0" encoding="UTF-8" standalone="no"?>
<!DOCTYPE svg PUBLIC "-//W3C//DTD SVG 1.1//EN" "http://www.w3.org/Graphics/SVG/1.1/DTD/svg11.dtd">
<svg width="100%" height="100%" viewBox="0 0 825 774" version="1.1" xmlns="http://www.w3.org/2000/svg" xmlns:xlink="http://www.w3.org/1999/xlink" xml:space="preserve" xmlns:serif="http://www.serif.com/" style="fill-rule:evenodd;clip-rule:evenodd;stroke-linejoin:round;stroke-miterlimit:2;">
    <g transform="matrix(1,0,0,1,-177,-127)">
        <g id="Warstwa-1" serif:id="Warstwa 1" transform="matrix(4.16667,0,0,4.16667,0,0)">
            <g transform="matrix(-0.635754,0.771892,0.771892,0.635754,251.876,146.579)">
                <path d="M65.557,-130.868C71.064,-127.815 76.408,-124.218 81.501,-120.024C53.75,-82.675 35.343,-42.755 65.557,26.319C58.051,24.929 50.243,21.772 42.272,17.177C20.981,-45.673 34.971,-87.632 65.557,-130.868" style="fill:white;fill-rule:nonzero;"/>
            </g>
            <g transform="matrix(0.988806,0.149204,0.149204,-0.988806,202.256,90.8889)">
                <path d="M0.741,1.967C16.901,-9.121 30.896,-23.889 42.982,-42.681C34.215,-10.204 18.568,25.842 0.741,58.869C-22.397,61.473 -46.888,48.818 -64.373,27.468C-43.175,23.359 -20.317,16.414 0.741,1.967" style="fill:white;fill-rule:nonzero;"/>
            </g>
            <g transform="matrix(1,0,0,1,136.031,177.115)">
                <path d="M0,-116.404C-11.294,-104.217 -20.257,-88.863 -24.967,-71.419C-1.632,-69.686 24.476,-65.34 49.249,-51.593C69.842,-40.166 87.825,-23.153 103.696,0C103.889,-3.048 103.984,-6.19 104.005,-9.399C84.417,-73.264 49.156,-99.541 0,-116.404" style="fill:white;fill-rule:nonzero;"/>
            </g>
            <g transform="matrix(1,0,0,1,130.857,210.901)">
                <path d="M0,-175.583C1.7,-177.119 3.441,-178.581 5.213,-179.981C5.064,-179.982 4.917,-179.988 4.768,-179.988C-46.151,-179.988 -87.429,-138.71 -87.429,-87.791C-87.429,-36.873 -46.151,4.405 4.768,4.405C28.823,4.405 50.723,-4.811 67.139,-19.901C61.473,-26.139 55.646,-31.398 49.672,-35.837C37.618,-25.404 21.923,-19.07 4.768,-19.07C-33.125,-19.07 -63.953,-49.899 -63.953,-87.791C-63.953,-117.137 -45.454,-142.218 -19.512,-152.047C-15.735,-158.199 -11.412,-163.879 -6.671,-168.995" style="fill:white;fill-rule:nonzero;"/>
            </g>
        </g>
    </g>
</svg>
